<svg width="27" height="25" viewBox="0 0 27 25" fill="none" xmlns="http://www.w3.org/2000/svg">
<path d="M16.0415 10.7082L18.7081 13.3749L16.0415 16.0415M10.7082 16.0415L8.04159 13.3749L10.7082 10.7082M1.375 4.04163V18.4415C1.375 19.9349 1.375 20.6811 1.66565 21.2516C1.92131 21.7533 2.32895 22.1621 2.83071 22.4177C3.40058 22.7081 4.14696 22.7081 5.63749 22.7081H21.1122C22.6028 22.7081 23.3481 22.7081 23.9179 22.4177C24.4197 22.1621 24.8287 21.7536 25.0844 21.2518C25.375 20.6814 25.375 19.9347 25.375 18.4412L25.375 8.30795C25.375 6.8145 25.375 6.06777 25.0844 5.49735C24.8287 4.99559 24.4199 4.58794 23.9182 4.33228C23.3478 4.04163 22.6016 4.04163 21.1081 4.04163H13.3749M1.375 4.04163H13.3749M1.375 4.04163C1.375 2.56889 2.56889 1.375 4.04163 1.375H8.94093C9.59317 1.375 9.92005 1.375 10.2269 1.44868C10.499 1.514 10.7587 1.62202 10.9973 1.76822C11.2663 1.93308 11.4973 2.16408 11.9582 2.62499L13.3749 4.04163" stroke="#2C57A5" stroke-width="2.75" stroke-linecap="round" stroke-linejoin="round"/>
</svg>
