<svg width="27" height="23" viewBox="0 0 27 23" fill="none" xmlns="http://www.w3.org/2000/svg">
<path d="M25.375 21.3749C25.375 19.0527 23.1488 17.0772 20.0417 16.3451M17.375 21.375C17.375 18.4295 13.7933 16.0417 9.375 16.0417C4.95672 16.0417 1.375 18.4295 1.375 21.375M17.375 12.0417C20.3205 12.0417 22.7083 9.65385 22.7083 6.70833C22.7083 3.76281 20.3205 1.375 17.375 1.375M9.375 12.0417C6.42948 12.0417 4.04167 9.65385 4.04167 6.70833C4.04167 3.76281 6.42948 1.375 9.375 1.375C12.3205 1.375 14.7083 3.76281 14.7083 6.70833C14.7083 9.65385 12.3205 12.0417 9.375 12.0417Z" stroke="#2C57A5" stroke-width="2.75" stroke-linecap="round" stroke-linejoin="round"/>
</svg>
