<svg width="32" height="25" viewBox="0 0 32 25" fill="none" xmlns="http://www.w3.org/2000/svg">
<rect x="4" y="10" width="24" height="8" fill="#FAFAFA"/>
<path d="M27.0894 2.02188C25.0498 1.08604 22.8626 0.396555 20.5759 0.00165655C20.5342 -0.00596486 20.4926 0.0130815 20.4712 0.051175C20.1899 0.551462 19.8783 1.20413 19.6601 1.71712C17.2005 1.34889 14.7536 1.34889 12.3444 1.71712C12.1262 1.19272 11.8033 0.551462 11.5208 0.051175C11.4993 0.0143524 11.4577 -0.00469388 11.4161 0.00165655C9.13055 0.395293 6.94341 1.08478 4.90258 2.02188C4.88491 2.0295 4.86977 2.04221 4.85972 2.05871C0.711189 8.25652 -0.425267 14.302 0.13224 20.2725C0.134763 20.3017 0.15116 20.3297 0.173864 20.3474C2.91095 22.3575 5.56228 23.5778 8.16437 24.3866C8.20602 24.3993 8.25014 24.3841 8.27664 24.3498C8.89217 23.5092 9.44086 22.6229 9.9113 21.6908C9.93906 21.6363 9.91256 21.5715 9.85582 21.5499C8.98551 21.2198 8.1568 20.8172 7.35964 20.3601C7.29659 20.3233 7.29154 20.2331 7.34954 20.19C7.5173 20.0643 7.68509 19.9335 7.84527 19.8014C7.87425 19.7773 7.91464 19.7722 7.94871 19.7874C13.1857 22.1785 18.8554 22.1785 24.0306 19.7874C24.0647 19.7709 24.1051 19.776 24.1353 19.8001C24.2955 19.9322 24.4633 20.0643 24.6323 20.19C24.6903 20.2331 24.6865 20.3233 24.6235 20.3601C23.8263 20.8261 22.9976 21.2198 22.126 21.5486C22.0693 21.5702 22.044 21.6363 22.0718 21.6908C22.5523 22.6216 23.101 23.5079 23.7052 24.3485C23.7304 24.3841 23.7758 24.3993 23.8175 24.3866C26.4322 23.5778 29.0835 22.3575 31.8206 20.3474C31.8446 20.3297 31.8597 20.303 31.8622 20.2738C32.5294 13.3712 30.7447 7.3753 27.131 2.05997C27.1221 2.04221 27.107 2.0295 27.0894 2.02188ZM10.6934 16.6371C9.11666 16.6371 7.81751 15.1896 7.81751 13.4119C7.81751 11.6341 9.09147 10.1866 10.6934 10.1866C12.3078 10.1866 13.5944 11.6469 13.5692 13.4119C13.5692 15.1896 12.2952 16.6371 10.6934 16.6371ZM21.3263 16.6371C19.7497 16.6371 18.4505 15.1896 18.4505 13.4119C18.4505 11.6341 19.7244 10.1866 21.3263 10.1866C22.9408 10.1866 24.2274 11.6469 24.2022 13.4119C24.2022 15.1896 22.9408 16.6371 21.3263 16.6371Z" fill="#5865F2"/>
</svg>
