<svg preserveAspectRatio="none" width="100%" height="100%" overflow="visible" style="display: block;" viewBox="0 0 32 32" fill="none" xmlns="http://www.w3.org/2000/svg">
<g id="meetup">
<rect id="Rectangle 1" x="4" y="8" width="22" height="16" fill="var(--fill-0, white)"/>
<path id="meetup_2" d="M6.21886 3.57314C10.8768 1.60748 19.4204 -0.650649 25.4485 1.10426C28.5487 2.00671 31.3628 5.42235 31.9023 9.06113C32.3491 12.0764 31.207 15.5237 29.6285 17.2681C29.5127 17.396 29.4511 17.5657 29.4628 17.7397C29.4668 17.8012 29.4807 17.8637 29.5023 17.921C31.683 23.6621 28.2617 26.4349 24.3634 27.2138C20.3715 28.0114 16.4734 29.38 12.7243 30.979H12.7239L12.7237 30.9792C8.88119 32.6211 3.37611 30.9273 1.51698 26.7097C0.465974 24.3251 1.2085 20.8563 2.05624 18.4004C2.15935 18.1018 2.10028 17.7704 1.91218 17.519C1.21432 16.5863 0.665846 15.4775 0.32447 14.2272C-1.01646 9.31441 1.9644 5.36848 6.21886 3.57314ZM19.9272 10.0874C18.8234 8.83786 16.8716 8.63733 15.3937 10.0376C15.1071 10.3091 14.5819 10.2464 14.307 9.96234C13.4239 9.04973 11.8075 8.85811 10.4495 9.41606C9.32708 9.87728 8.42551 10.9338 7.88235 12.5551C7.88235 12.5551 6.89803 16.4357 6.05579 18.7972C4.72267 22.8407 10.5483 24.0055 11.6949 20.2156L13.3482 14.2779C13.6092 13.4167 14.0042 12.6763 14.7975 12.8825C15.5909 13.089 15.6334 13.9235 15.3211 14.8211L14.5474 18.0974C13.8398 20.714 17.4336 21.4204 18.1942 19.0222L19.4349 14.2779C19.6819 13.3659 20.126 12.831 20.7688 12.9685C21.4117 13.106 21.6071 13.6703 21.353 14.5808L20.6692 17.345C20.2198 18.9346 20.6254 20.256 22.1898 20.5129C23.8955 20.7929 24.9671 20.0591 25.3324 19.7488C25.4283 19.6678 25.484 19.5512 25.5047 19.4254C25.5456 19.1771 25.3579 18.9541 25.1128 18.947C24.4667 18.9291 24.0706 18.8278 23.9275 18.4013C23.8181 18.0754 23.7796 17.723 23.977 17.0137C24.1484 16.3977 24.5839 14.7959 24.9031 13.6196C25.2593 12.3063 25.7549 10.8068 24.5694 9.76862C23.5742 8.89697 22.0251 9.14724 20.8137 10.1704C20.5555 10.3886 20.1519 10.3418 19.9273 10.0874H19.9272ZM21.9006 31.986C26.7398 31.8579 28.0516 28.826 26.9244 28.5997C23.8501 27.9824 10.9811 32.2754 21.9006 31.986ZM5.25438 0.0547471C1.92364 0.320286 0.894325 3.69674 1.69791 3.69674C3.83122 3.69674 12.5357 -0.525416 5.25451 0.0547471H5.25438Z" fill="var(--fill-0, #FF4A79)"/>
</g>
</svg>
