<svg width="32" height="32" viewBox="0 0 32 32" fill="none" xmlns="http://www.w3.org/2000/svg">
<g clip-path="url(#clip0_1064_856)">
<path d="M31.3627 8.24656C31.1817 7.56578 30.8252 6.94446 30.3287 6.44477C29.8322 5.94508 29.2132 5.58456 28.5336 5.39929C26.0317 4.72656 16.0317 4.72656 16.0317 4.72656C16.0317 4.72656 6.03174 4.72656 3.52992 5.39929C2.85031 5.58456 2.23128 5.94508 1.73479 6.44477C1.23829 6.94446 0.881746 7.56578 0.700829 8.24656C0.0317384 10.7593 0.0317383 15.9993 0.0317383 15.9993C0.0317383 15.9993 0.0317384 21.2393 0.700829 23.752C0.881746 24.4328 1.23829 25.0541 1.73479 25.5538C2.23128 26.0535 2.85031 26.414 3.52992 26.5993C6.03174 27.272 16.0317 27.272 16.0317 27.272C16.0317 27.272 26.0317 27.272 28.5336 26.5993C29.2132 26.414 29.8322 26.0535 30.3287 25.5538C30.8252 25.0541 31.1817 24.4328 31.3627 23.752C32.0317 21.2393 32.0317 15.9993 32.0317 15.9993C32.0317 15.9993 32.0317 10.7593 31.3627 8.24656Z" fill="#FF0302"/>
<path d="M12.7593 20.7586V11.2422L21.1229 16.0004L12.7593 20.7586Z" fill="#FEFEFE"/>
</g>
<defs>
<clipPath id="clip0_1064_856">
<rect width="32" height="32" fill="white"/>
</clipPath>
</defs>
</svg>
